# Made in Blockbench 4.6.5
mtllib microphone_stand_stage_round_boom_0.mtl

o fixed_base
v 0.75 0.0625 0.75
v 0.75 0.0625 0.25
v 0.75 0 0.75
v 0.75 0 0.25
v 0.25 0.0625 0.25
v 0.25 0.0625 0.75
v 0.25 0 0.25
v 0.25 0 0.75
vt 0.5 0
vt 0.5 0.5
vt 0.5625 0.5
vt 0.5625 0
vt 0.5 0
vt 0.5 0.5
vt 0.5625 0.5
vt 0.5625 0
vt 0.5 0
vt 0.5 0.5
vt 0.5625 0.5
vt 0.5625 0
vt 0.5 0
vt 0.5 0.5
vt 0.5625 0.5
vt 0.5625 0
vt 0 0.5
vt 0.5 0.5
vt 0.5 0
vt 0 0
vt 0.34375 0.375
vt 0.5 0.375
vt 0.5 0.21875
vt 0.34375 0.21875
vn 0 0 -1
vn 1 0 0
vn 0 0 1
vn -1 0 0
vn 0 1 0
vn 0 -1 0
usemtl m_ee6d52af-ce19-6af4-b4e0-da065d7a5930
f 4/4/1 7/3/1 5/2/1 2/1/1
f 3/8/2 4/7/2 2/6/2 1/5/2
f 8/12/3 3/11/3 1/10/3 6/9/3
f 7/16/4 8/15/4 6/14/4 5/13/4
f 6/20/5 1/19/5 2/18/5 5/17/5
f 7/24/6 4/23/6 3/22/6 8/21/6
o cable
v 0.560261338408113 0.5641287768735628 0.6655666665424043
v 0.5 0.4999999999999999 0.5
v 0.6297168943571663 0.0061862832819297164 0.8563942381680956
v 0.5694555559490533 -0.057942493591633115 0.6908275716256913
v 0.5 0.4999999999999999 0.5
v 0.560261338408113 0.5641287768735628 0.6655666665424043
v 0.5694555559490533 -0.057942493591633115 0.6908275716256913
v 0.6297168943571663 0.0061862832819297164 0.8563942381680956
vt 1 0.59375
vt 0.8125 0.59375
vt 0.8125 0
vt 1 0
vt 0.8125 0.59375
vt 1 0.59375
vt 1 0
vt 0.8125 0
vn 0.9396926207859086 -1.3877787807814457e-17 -0.342020143325668
vn -0.9396926207859086 1.3877787807814457e-17 0.342020143325668
usemtl m_ee6d52af-ce19-6af4-b4e0-da065d7a5930
f 11/28/7 12/27/7 10/26/7 9/25/7
f 15/32/8 16/31/8 14/30/8 13/29/8
o cube
v 0.45580582617584076 1.0625 0.5441941738241591
v 0.5441941738241591 1.0625 0.45580582617584076
v 0.45580582617584076 0.06249999999999989 0.5441941738241591
v 0.5441941738241591 0.06249999999999989 0.45580582617584076
v 0.5441941738241591 1.0625 0.45580582617584076
v 0.45580582617584076 1.0625 0.5441941738241591
v 0.5441941738241591 0.06249999999999989 0.45580582617584076
v 0.45580582617584076 0.06249999999999989 0.5441941738241591
vt 1 0.9375
vt 1 0.8125
vt 0 0.8125
vt 0 0.9375
vt 1 0.9375
vt 1 0.8125
vt 0 0.8125
vt 0 0.9375
vn 0.7071067811865475 0 0.7071067811865476
vn -0.7071067811865475 0 -0.7071067811865476
usemtl m_ee6d52af-ce19-6af4-b4e0-da065d7a5930
f 19/36/9 20/35/9 18/34/9 17/33/9
f 23/40/10 24/39/10 22/38/10 21/37/10
o cube
v 0.5441941738241591 1.0625 0.5441941738241591
v 0.45580582617584087 1.0625 0.45580582617584087
v 0.5441941738241591 0.0625 0.5441941738241591
v 0.45580582617584087 0.0625 0.45580582617584087
v 0.45580582617584087 1.0625 0.45580582617584087
v 0.5441941738241591 1.0625 0.5441941738241591
v 0.45580582617584087 0.0625 0.45580582617584087
v 0.5441941738241591 0.0625 0.5441941738241591
vt 1 0.9375
vt 1 0.8125
vt 0 0.8125
vt 0 0.9375
vt 1 0.9375
vt 1 0.8125
vt 0 0.8125
vt 0 0.9375
vn 0.7071067811865475 0 -0.7071067811865476
vn -0.7071067811865475 0 0.7071067811865476
usemtl m_ee6d52af-ce19-6af4-b4e0-da065d7a5930
f 27/44/11 28/43/11 26/42/11 25/41/11
f 31/48/12 32/47/12 30/46/12 29/45/12
o cube
v 0.4558058261758404 1.59375 0.45580582617584087
v 0.5441941738241589 1.59375 0.5441941738241594
v 0.4558058261758404 1.0625 0.45580582617584087
v 0.5441941738241589 1.0625 0.5441941738241594
v 0.5441941738241589 1.59375 0.5441941738241594
v 0.4558058261758404 1.59375 0.45580582617584087
v 0.5441941738241589 1.0625 0.5441941738241594
v 0.4558058261758404 1.0625 0.45580582617584087
vt 0.53125 0.9375
vt 0.53125 0.8125
vt 0 0.8125
vt 0 0.9375
vt 0.53125 0.9375
vt 0.53125 0.8125
vt 0 0.8125
vt 0 0.9375
vn -0.7071067811865475 0 0.7071067811865477
vn 0.7071067811865475 0 -0.7071067811865477
usemtl m_ee6d52af-ce19-6af4-b4e0-da065d7a5930
f 35/52/13 36/51/13 34/50/13 33/49/13
f 39/56/14 40/55/14 38/54/14 37/53/14
o cube
v 0.45580582617584076 1.59375 0.5441941738241591
v 0.5441941738241591 1.59375 0.45580582617584076
v 0.45580582617584076 1.0625 0.5441941738241591
v 0.5441941738241591 1.0625 0.45580582617584076
v 0.5441941738241591 1.59375 0.45580582617584076
v 0.45580582617584076 1.59375 0.5441941738241591
v 0.5441941738241591 1.0625 0.45580582617584076
v 0.45580582617584076 1.0625 0.5441941738241591
vt 0.53125 0.9375
vt 0.53125 0.8125
vt 0 0.8125
vt 0 0.9375
vt 0.53125 0.9375
vt 0.53125 0.8125
vt 0 0.8125
vt 0 0.9375
vn 0.7071067811865475 0 0.7071067811865476
vn -0.7071067811865475 0 -0.7071067811865476
usemtl m_ee6d52af-ce19-6af4-b4e0-da065d7a5930
f 43/60/15 44/59/15 42/58/15 41/57/15
f 47/64/16 48/63/16 46/62/16 45/61/16
o cable
v 0.5267203236973179 1.46875 0.5734134859988991
v 0.4732796763026821 1.46875 0.4265865140011008
v 0.5267203236973179 1 0.5734134859988991
v 0.4732796763026821 1 0.4265865140011008
v 0.4732796763026821 1.46875 0.4265865140011008
v 0.5267203236973179 1.46875 0.5734134859988991
v 0.4732796763026821 1 0.4265865140011008
v 0.5267203236973179 1 0.5734134859988991
vt 0.8125 0.59375
vt 0.65625 0.59375
vt 0.65625 0.125
vt 0.8125 0.125
vt 0.65625 0.59375
vt 0.8125 0.59375
vt 0.8125 0.125
vt 0.65625 0.125
vn 0.9396926207859084 0 -0.34202014332566866
vn -0.9396926207859084 0 0.34202014332566866
usemtl m_ee6d52af-ce19-6af4-b4e0-da065d7a5930
f 51/68/17 52/67/17 50/66/17 49/65/17
f 55/72/18 56/71/18 54/70/18 53/69/18
o cube
v 0.45580582617584087 1.550448676186536 1.0000781142541648
v 0.45580582617584087 1.7240968538534664 0.015270361241956687
v 0.5441941738241591 1.4634031461465336 0.9847296387580431
v 0.5441941738241591 1.637051323813464 -0.00007811425416481832
v 0.45580582617584087 1.7240968538534664 0.015270361241956687
v 0.45580582617584087 1.550448676186536 1.0000781142541648
v 0.5441941738241591 1.637051323813464 -0.00007811425416481832
v 0.5441941738241591 1.4634031461465336 0.9847296387580431
vt 1 0.8125
vt 0 0.8125
vt 0 0.6875
vt 1 0.6875
vt 0 0.8125
vt 1 0.8125
vt 1 0.6875
vt 0 0.6875
vn 0.7071067811865475 0.696364240320019 0.12278780396897285
vn -0.7071067811865475 -0.696364240320019 -0.12278780396897285
usemtl m_ee6d52af-ce19-6af4-b4e0-da065d7a5930
f 59/76/19 60/75/19 58/74/19 57/73/19
f 63/80/20 64/79/20 62/78/20 61/77/20
o cube
v 0.5441941738241598 1.5504486761865364 1.0000781142541648
v 0.5441941738241598 1.724096853853467 0.015270361241956909
v 0.45580582617584064 1.4634031461465336 0.9847296387580431
v 0.45580582617584064 1.6370513238134636 -0.00007811425416476281
v 0.5441941738241598 1.724096853853467 0.015270361241956909
v 0.5441941738241598 1.5504486761865364 1.0000781142541648
v 0.45580582617584064 1.6370513238134636 -0.00007811425416476281
v 0.45580582617584064 1.4634031461465336 0.9847296387580431
vt 1 0.8125
vt 0 0.8125
vt 0 0.6875
vt 1 0.6875
vt 0 0.8125
vt 1 0.8125
vt 1 0.6875
vt 0 0.6875
vn 0.7071067811865475 -0.696364240320019 -0.12278780396897285
vn -0.7071067811865475 0.696364240320019 0.12278780396897285
usemtl m_ee6d52af-ce19-6af4-b4e0-da065d7a5930
f 67/84/21 68/83/21 66/82/21 65/81/21
f 71/88/22 72/87/22 70/86/22 69/85/22
o cable
v 0.5 1.7068898535378025 0.48821752715068956
v 0.5 1.7720079201629013 0.11891461977111117
v 0.5 1.6145641266929074 0.47193801049441464
v 0.5 1.6796821933180062 0.10263510311483626
v 0.5 1.7720079201629013 0.11891461977111117
v 0.5 1.7068898535378025 0.48821752715068956
v 0.5 1.6796821933180062 0.10263510311483626
v 0.5 1.6145641266929074 0.47193801049441464
vt 1 0.6875
vt 0.625 0.6875
vt 0.625 0.59375
vt 1 0.59375
vt 0.625 0.6875
vt 1 0.6875
vt 1 0.59375
vt 0.625 0.59375
vn 1 0 0
vn -1 0 0
usemtl m_ee6d52af-ce19-6af4-b4e0-da065d7a5930
f 75/92/23 76/91/23 74/90/23 73/89/23
f 79/96/24 80/95/24 78/94/24 77/93/24
o cable
v 0.4822892401971114 1.526170948651763 -0.012573977772627865
v 0.48158431625607545 1.5129944380347422 0.015753485054051275
v 0.5007049239410359 1.7236339462166583 0.07973414584024874
v 0.5 1.7104574355996376 0.10806160866692782
v 0.41932214762534137 1.518358916233332 0.016699387297884893
v 0.4200270715663773 1.5315354268503527 -0.01162807552879419
v 0.4377378313692659 1.7158219137982273 0.10900751091076155
v 0.43844275531030186 1.728998424415248 0.08068004808408236
vt 0.53125 0.96875
vt 0.53125 1
vt 0.75 1
vt 0.75 0.96875
vt 0.6875 1
vt 0.75 1
vt 0.75 0.96875
vt 0.6875 0.96875
vn -0.9961946980917457 0.0858316511774313 0.015134435901338613
vn 0.08418598282936919 0.902687988868091 0.42197999365886346
usemtl m_ee6d52af-ce19-6af4-b4e0-da065d7a5930
f 87/100/25 88/99/25 86/98/25 85/97/25
f 87/104/26 84/103/26 83/102/26 88/101/26
o cube
v 0.46685436963188076 1.5124354571710779 1.1520357662253067
v 0.46685436963188076 1.5395679849315353 0.9981595548171498
v 0.5331456303681195 1.447151309641076 1.1405244096032154
v 0.5331456303681195 1.4742838374015337 0.9866481981950583
v 0.46685436963188076 1.5395679849315353 0.9981595548171498
v 0.46685436963188076 1.5124354571710779 1.1520357662253067
v 0.5331456303681195 1.4742838374015337 0.9866481981950583
v 0.5331456303681195 1.447151309641076 1.1405244096032154
vt 0.375 0.6875
vt 0.25 0.6875
vt 0.25 0.59375
vt 0.375 0.59375
vt 0.25 0.6875
vt 0.375 0.6875
vt 0.375 0.59375
vt 0.25 0.59375
vn 0.7071067811865475 0.696364240320019 0.12278780396897285
vn -0.7071067811865475 -0.696364240320019 -0.12278780396897285
usemtl m_ee6d52af-ce19-6af4-b4e0-da065d7a5930
f 91/108/27 92/107/27 90/106/27 89/105/27
f 95/112/28 96/111/28 94/110/28 93/109/28
o cube
v 0.5331456303681201 1.5124354571710783 1.1520357662253071
v 0.5331456303681201 1.5395679849315362 0.9981595548171498
v 0.46685436963188054 1.447151309641076 1.1405244096032157
v 0.46685436963188054 1.474283837401534 0.9866481981950583
v 0.5331456303681201 1.5395679849315362 0.9981595548171498
v 0.5331456303681201 1.5124354571710783 1.1520357662253071
v 0.46685436963188054 1.474283837401534 0.9866481981950583
v 0.46685436963188054 1.447151309641076 1.1405244096032157
vt 0.375 0.6875
vt 0.25 0.6875
vt 0.25 0.59375
vt 0.375 0.59375
vt 0.25 0.6875
vt 0.375 0.6875
vt 0.375 0.59375
vt 0.25 0.59375
vn 0.7071067811865475 -0.696364240320019 -0.12278780396897285
vn -0.7071067811865475 0.696364240320019 0.12278780396897285
usemtl m_ee6d52af-ce19-6af4-b4e0-da065d7a5930
f 99/116/29 100/115/29 98/114/29 97/113/29
f 103/120/30 104/119/30 102/118/30 101/117/30
o cube
v 0.578125 1.5956077337987793 -0.032024338544294595
v 0.578125 1.608814554478176 -0.06034645688918988
v 0.578125 1.4823192604191977 -0.08485162126188217
v 0.578125 1.4955260810985944 -0.11317373960677751
v 0.421875 1.608814554478176 -0.06034645688918988
v 0.421875 1.5956077337987793 -0.032024338544294595
v 0.421875 1.4955260810985944 -0.11317373960677751
v 0.421875 1.4823192604191977 -0.08485162126188217
vt 0.5 0.6875
vt 0.5 0.65625
vt 0.375 0.65625
vt 0.375 0.6875
vt 0.5 0.65625
vt 0.5 0.6875
vt 0.375 0.6875
vt 0.375 0.65625
vt 0.46875 0.6875
vt 0.625 0.6875
vt 0.625 0.65625
vt 0.46875 0.65625
vt 0.46875 0.6875
vt 0.625 0.6875
vt 0.625 0.65625
vt 0.46875 0.65625
vn 1 0 0
vn -1 0 0
vn 0 0.9063077870366499 0.4226182617406994
vn 0 -0.9063077870366499 -0.4226182617406994
usemtl m_ee6d52af-ce19-6af4-b4e0-da065d7a5930
f 107/124/31 108/123/31 106/122/31 105/121/31
f 111/128/32 112/127/32 110/126/32 109/125/32
f 110/132/33 105/131/33 106/130/33 109/129/33
f 111/136/34 108/135/34 107/134/34 112/133/34
o cube
v 0.5 1.680574088833465 0.007596123493895934
v 0.5 1.6937809095128622 -0.02072599485099952
v 0.5 1.5956077337987793 -0.032024338544294595
v 0.5 1.608814554478176 -0.0603464568891901
v 0.5 1.6937809095128622 -0.02072599485099952
v 0.5 1.680574088833465 0.007596123493895934
v 0.5 1.608814554478176 -0.0603464568891901
v 0.5 1.5956077337987793 -0.032024338544294595
vt 0.84375 1
vt 0.84375 0.96875
vt 0.75 0.96875
vt 0.75 1
vt 0.84375 0.96875
vt 0.84375 1
vt 0.75 1
vt 0.75 0.96875
vn 1 0 0
vn -1 0 0
usemtl m_ee6d52af-ce19-6af4-b4e0-da065d7a5930
f 115/140/35 116/139/35 114/138/35 113/137/35
f 119/144/36 120/143/36 118/142/36 117/141/36
o blur_bm7b
v 0.5625 1.565583729931344 0.06384072990536982
v 0.5625 1.565583729931344 -0.34240927009463124
v 0.5625 1.4405837299313442 0.06384072990536982
v 0.5625 1.4405837299313442 -0.34240927009463124
v 0.4375 1.565583729931344 -0.34240927009463124
v 0.4375 1.565583729931344 0.06384072990536982
v 0.4375 1.4405837299313442 -0.34240927009463124
v 0.4375 1.4405837299313442 0.06384072990536982
vt 0 0.875
vt 0.125 0.875
vt 0.125 0.75
vt 0 0.75
vt 0.53125 1
vt 0.125 1
vt 0.125 0.875
vt 0.53125 0.875
vt 0.53125 0.875
vt 0.65625 0.875
vt 0.65625 0.75
vt 0.53125 0.75
vt 0.125 0.75
vt 0.53125 0.75
vt 0.53125 0.625
vt 0.125 0.625
vt 0.125 0.875
vt 0.125 0.75
vt 0.53125 0.75
vt 0.53125 0.875
vt 0.53125 0.625
vt 0.53125 0.5
vt 0.125 0.5
vt 0.125 0.625
vn 0 -5.551115123125783e-17 -1
vn 1 0 0
vn 0 5.551115123125783e-17 1
vn -1 0 0
vn 0 1 -5.551115123125783e-17
vn 0 -1 5.551115123125783e-17
usemtl m_feec359c-b6ac-86cf-7364-5a3e45e4f396
f 124/148/37 127/147/37 125/146/37 122/145/37
f 123/152/38 124/151/38 122/150/38 121/149/38
f 128/156/39 123/155/39 121/154/39 126/153/39
f 127/160/40 128/159/40 126/158/40 125/157/40
f 126/164/41 121/163/41 122/162/41 125/161/41
f 127/168/42 124/167/42 123/166/42 128/165/42