mtllib microphone_stand.mtl

o fixed_base
v 0.0625 0.21875 0.0625
v 0.0625 0.21875 -0.0625
v 0.0625 0.1875 0.0625
v 0.0625 0.1875 -0.0625
v -0.0625 0.21875 -0.0625
v -0.0625 0.21875 0.0625
v -0.0625 0.1875 -0.0625
v -0.0625 0.1875 0.0625
vt 0.1875 0.96875
vt 0.3125 0.96875
vt 0.3125 0.9375
vt 0.1875 0.9375
vt 0.1875 0.96875
vt 0.3125 0.96875
vt 0.3125 0.9375
vt 0.1875 0.9375
vt 0.3125 0.96875
vt 0.4375 0.96875
vt 0.4375 0.9375
vt 0.3125 0.9375
vt 0.3125 0.96875
vt 0.4375 0.96875
vt 0.4375 0.9375
vt 0.3125 0.9375
vt 0.125 0.6875
vt 0.25 0.6875
vt 0.25 0.5625
vt 0.125 0.5625
vt 0 0.6875
vt 0.125 0.6875
vt 0.125 0.5625
vt 0 0.5625
vn 0 0 -1
vn 1 0 0
vn 0 0 1
vn -1 0 0
vn 0 1 0
vn 0 -1 0
usemtl microphone_stand_stage
f 4/4/1 7/3/1 5/2/1 2/1/1
f 3/8/2 4/7/2 2/6/2 1/5/2
f 8/12/3 3/11/3 1/10/3 6/9/3
f 7/16/4 8/15/4 6/14/4 5/13/4
f 6/20/5 1/19/5 2/18/5 5/17/5
f 7/24/6 4/23/6 3/22/6 8/21/6
o leg
v 1.2212453270876722e-15 0.2122513225549919 0.010742052813907277
v 2.9976021664879227e-15 0.019864991934303244 0.5393191520059806
v 1.2212453270876722e-15 0.18288592815543225 0.00005392333498011048
v 2.9976021664879227e-15 -0.009500402465256408 0.5286310225270534
v 2.9976021664879227e-15 0.019864991934303244 0.5393191520059806
v 1.2212453270876722e-15 0.2122513225549919 0.010742052813907277
v 2.9976021664879227e-15 -0.009500402465256408 0.5286310225270534
v 1.2212453270876722e-15 0.18288592815543225 0.00005392333498011048
vt 0 1
vt 0.5625 1
vt 0.5625 0.96875
vt 0 0.96875
vt 0.5625 0.96875
vt 0 0.96875
vt 0 1
vt 0.5625 1
vn -1 1.2246467991473537e-16 3.412992994007896e-15
vn 1 -1.2246467991473537e-16 -3.412992994007896e-15
usemtl microphone_stand_stage
f 11/28/7 12/27/7 10/26/7 9/25/7
f 15/32/8 16/31/8 14/30/8 13/29/8
o support
v 4.440892098500626e-16 0.078125 0.015625
v 9.992007221626409e-16 0.078125 0.203125
v 4.440892098500626e-16 0.046875 0.015625
v 9.992007221626409e-16 0.046875 0.203125
v 9.992007221626409e-16 0.078125 0.203125
v 4.440892098500626e-16 0.078125 0.015625
v 9.992007221626409e-16 0.046875 0.203125
v 4.440892098500626e-16 0.046875 0.015625
vt 0 0.96875
vt 0.1875 0.96875
vt 0.1875 0.9375
vt 0 0.9375
vt 0.1875 0.9375
vt 0 0.9375
vt 0 0.96875
vt 0.1875 0.96875
vn -1 1.224646799147353e-16 3.041475976202888e-15
vn 1 -1.224646799147353e-16 -3.041475976202888e-15
usemtl microphone_stand_stage
f 19/36/9 20/35/9 18/34/9 17/33/9
f 23/40/10 24/39/10 22/38/10 21/37/10
o support
v -0.009302890625637716 0.2122513225549919 -0.005371026406953583
v -0.46706408638466096 0.019864991934303133 -0.26965957600298934
v -0.000046698977949510834 0.18288592815543225 -0.00002696166749005524
v -0.4578078947369727 -0.009500402465256408 -0.2643155112635258
v -0.46706408638466096 0.019864991934303133 -0.26965957600298934
v -0.009302890625637716 0.2122513225549919 -0.005371026406953583
v -0.4578078947369727 -0.009500402465256408 -0.2643155112635258
v -0.000046698977949510834 0.18288592815543225 -0.00002696166749005524
vt 0 1
vt 0.5625 1
vt 0.5625 0.96875
vt 0 0.96875
vt 0.5625 0.96875
vt 0 0.96875
vt 0 1
vt 0.5625 1
vn 0.4999999999999983 -8.326672684688677e-17 -0.8660254037844398
vn -0.4999999999999983 8.326672684688677e-17 0.8660254037844398
usemtl microphone_stand_stage
f 27/44/11 28/43/11 26/42/11 25/41/11
f 31/48/12 32/47/12 30/46/12 29/45/12
o leg
v -0.013518767804618026 0.07880655292758343 -0.007805064231108216
v -0.1757439814600345 0.0869851880585839 -0.10146583500440715
v -0.014699252103239746 0.04758629600315034 -0.00848661715869159
v -0.17692446575865622 0.05576493113415082 -0.10214738793199052
v -0.1757439814600345 0.0869851880585839 -0.10146583500440715
v -0.013518767804618026 0.07880655292758343 -0.007805064231108216
v -0.17692446575865622 0.05576493113415082 -0.10214738793199052
v -0.014699252103239746 0.04758629600315034 -0.00848661715869159
vt 0 0.96875
vt 0.1875 0.96875
vt 0.1875 0.9375
vt 0 0.9375
vt 0.1875 0.9375
vt 0 0.9375
vt 0 0.96875
vt 0.1875 0.96875
vn 0.49999999999999867 -3.469446951953614e-18 -0.8660254037844396
vn -0.49999999999999867 3.469446951953614e-18 0.8660254037844396
usemtl microphone_stand_stage
f 35/52/13 36/51/13 34/50/13 33/49/13
f 39/56/14 40/55/14 38/54/14 37/53/14
o leg
v 0.00930289062563805 0.21225132255499202 -0.0053710264069537494
v 0.46706408638466046 0.019864991934302467 -0.2696595760029904
v 0.00004669897794973288 0.18288592815543225 -0.000026961667490166263
v 0.45780789473697214 -0.009500402465257185 -0.26431551126352676
v 0.46706408638466046 0.019864991934302467 -0.2696595760029904
v 0.00930289062563805 0.21225132255499202 -0.0053710264069537494
v 0.45780789473697214 -0.009500402465257185 -0.26431551126352676
v 0.00004669897794973288 0.18288592815543225 -0.000026961667490166263
vt 0 1
vt 0.5625 1
vt 0.5625 0.96875
vt 0 0.96875
vt 0.5625 0.96875
vt 0 0.96875
vt 0 1
vt 0.5625 1
vn 0.5 -8.326672684688674e-17 0.8660254037844386
vn -0.5 8.326672684688674e-17 -0.8660254037844386
usemtl microphone_stand_stage
f 43/60/15 44/59/15 42/58/15 41/57/15
f 47/64/16 48/63/16 46/62/16 45/61/16
o support
v 0.013518767804618026 0.07880655292758343 -0.007805064231108216
v 0.17574398146003456 0.0869851880585839 -0.10146583500440703
v 0.014699252103239746 0.04758629600315034 -0.00848661715869159
v 0.17692446575865628 0.05576493113415082 -0.10214738793199041
v 0.17574398146003456 0.0869851880585839 -0.10146583500440703
v 0.013518767804618026 0.07880655292758343 -0.007805064231108216
v 0.17692446575865628 0.05576493113415082 -0.10214738793199041
v 0.014699252103239746 0.04758629600315034 -0.00848661715869159
vt 0 0.96875
vt 0.1875 0.96875
vt 0.1875 0.9375
vt 0 0.9375
vt 0.1875 0.9375
vt 0 0.9375
vt 0 0.96875
vt 0.1875 0.96875
vn 0.499999999999998 3.469446951953614e-18 0.8660254037844399
vn -0.499999999999998 -3.469446951953614e-18 -0.8660254037844399
usemtl microphone_stand_stage
f 51/68/17 52/67/17 50/66/17 49/65/17
f 55/72/18 56/71/18 54/70/18 53/69/18
o cable
v 0.060261338408112985 0.5641287768735628 0.16556666654240426
v 0 0.4999999999999999 0
v 0.12971689435716616 0.0061862832819297164 0.3563942381680957
v 0.06945555594905328 -0.057942493591633115 0.19082757162569142
v 0 0.4999999999999999 0
v 0.060261338408112985 0.5641287768735628 0.16556666654240426
v 0.06945555594905328 -0.057942493591633115 0.19082757162569142
v 0.12971689435716616 0.0061862832819297164 0.3563942381680957
vt 1 0.59375
vt 0.8125 0.59375
vt 0.8125 0
vt 1 0
vt 0.8125 0.59375
vt 1 0.59375
vt 1 0
vt 0.8125 0
vn 0.9396926207859086 -1.3877787807814457e-17 -0.342020143325668
vn -0.9396926207859086 1.3877787807814457e-17 0.342020143325668
usemtl microphone_stand_stage
f 59/76/19 60/75/19 58/74/19 57/73/19
f 63/80/20 64/79/20 62/78/20 61/77/20
o cube
v -0.044194173824159244 1.0625 0.044194173824159244
v 0.044194173824159244 1.0625 -0.044194173824159244
v -0.044194173824159244 0.06249999999999989 0.044194173824159244
v 0.044194173824159244 0.06249999999999989 -0.044194173824159244
v 0.044194173824159244 1.0625 -0.044194173824159244
v -0.044194173824159244 1.0625 0.044194173824159244
v 0.044194173824159244 0.06249999999999989 -0.044194173824159244
v -0.044194173824159244 0.06249999999999989 0.044194173824159244
vt 1 0.9375
vt 1 0.8125
vt 0 0.8125
vt 0 0.9375
vt 1 0.9375
vt 1 0.8125
vt 0 0.8125
vt 0 0.9375
vn 0.7071067811865475 0 0.7071067811865476
vn -0.7071067811865475 0 -0.7071067811865476
usemtl microphone_stand_stage
f 67/84/21 68/83/21 66/82/21 65/81/21
f 71/88/22 72/87/22 70/86/22 69/85/22
o cube
v -0.04419417382415919 1.0625 -0.04419417382415919
v 0.044194173824159244 1.0625 0.044194173824159244
v -0.04419417382415919 0.0625 -0.04419417382415919
v 0.044194173824159244 0.0625 0.044194173824159244
v 0.044194173824159244 1.0625 0.044194173824159244
v -0.04419417382415919 1.0625 -0.04419417382415919
v 0.044194173824159244 0.0625 0.044194173824159244
v -0.04419417382415919 0.0625 -0.04419417382415919
vt 1 0.9375
vt 1 0.8125
vt 0 0.8125
vt 0 0.9375
vt 1 0.9375
vt 1 0.8125
vt 0 0.8125
vt 0 0.9375
vn -0.7071067811865475 0 0.7071067811865477
vn 0.7071067811865475 0 -0.7071067811865477
usemtl microphone_stand_stage
f 75/92/23 76/91/23 74/90/23 73/89/23
f 79/96/24 80/95/24 78/94/24 77/93/24
o cube
v -0.04419417382415952 1.59375 -0.04419417382415908
v 0.04419417382415891 1.59375 0.044194173824159355
v -0.04419417382415952 1.0625 -0.04419417382415908
v 0.04419417382415891 1.0625 0.044194173824159355
v 0.04419417382415891 1.59375 0.044194173824159355
v -0.04419417382415952 1.59375 -0.04419417382415908
v 0.04419417382415891 1.0625 0.044194173824159355
v -0.04419417382415952 1.0625 -0.04419417382415908
vt 0.53125 0.9375
vt 0.53125 0.8125
vt 0 0.8125
vt 0 0.9375
vt 0.53125 0.9375
vt 0.53125 0.8125
vt 0 0.8125
vt 0 0.9375
vn -0.7071067811865475 0 0.7071067811865477
vn 0.7071067811865475 0 -0.7071067811865477
usemtl microphone_stand_stage
f 83/100/25 84/99/25 82/98/25 81/97/25
f 87/104/26 88/103/26 86/102/26 85/101/26
o cube
v -0.044194173824159244 1.59375 0.044194173824159244
v 0.044194173824159244 1.59375 -0.044194173824159244
v -0.044194173824159244 1.0625 0.044194173824159244
v 0.044194173824159244 1.0625 -0.044194173824159244
v 0.044194173824159244 1.59375 -0.044194173824159244
v -0.044194173824159244 1.59375 0.044194173824159244
v 0.044194173824159244 1.0625 -0.044194173824159244
v -0.044194173824159244 1.0625 0.044194173824159244
vt 0.53125 0.9375
vt 0.53125 0.8125
vt 0 0.8125
vt 0 0.9375
vt 0.53125 0.9375
vt 0.53125 0.8125
vt 0 0.8125
vt 0 0.9375
vn 0.7071067811865475 0 0.7071067811865476
vn -0.7071067811865475 0 -0.7071067811865476
usemtl microphone_stand_stage
f 91/108/27 92/107/27 90/106/27 89/105/27
f 95/112/28 96/111/28 94/110/28 93/109/28
o cable
v 0.026720323697317805 1.46875 0.07341348599889908
v -0.02672032369731786 1.46875 -0.07341348599889919
v 0.026720323697317805 1 0.07341348599889908
v -0.02672032369731786 1 -0.07341348599889919
v -0.02672032369731786 1.46875 -0.07341348599889919
v 0.026720323697317805 1.46875 0.07341348599889908
v -0.02672032369731786 1 -0.07341348599889919
v 0.026720323697317805 1 0.07341348599889908
vt 0.8125 0.59375
vt 0.65625 0.59375
vt 0.65625 0.125
vt 0.8125 0.125
vt 0.65625 0.59375
vt 0.8125 0.59375
vt 0.8125 0.125
vt 0.65625 0.125
vn 0.9396926207859084 0 -0.34202014332566866
vn -0.9396926207859084 0 0.34202014332566866
usemtl microphone_stand_stage
f 99/116/29 100/115/29 98/114/29 97/113/29
f 103/120/30 104/119/30 102/118/30 101/117/30
o cube
v -0.04419417382415908 1.550448676186536 0.5000781142541648
v -0.04419417382415908 1.7240968538534664 -0.48472963875804326
v 0.044194173824159244 1.4634031461465336 0.4847296387580432
v 0.044194173824159244 1.637051323813464 -0.5000781142541648
v -0.04419417382415908 1.7240968538534664 -0.48472963875804326
v -0.04419417382415908 1.550448676186536 0.5000781142541648
v 0.044194173824159244 1.637051323813464 -0.5000781142541648
v 0.044194173824159244 1.4634031461465336 0.4847296387580432
vt 1 0.8125
vt 0 0.8125
vt 0 0.6875
vt 1 0.6875
vt 0 0.8125
vt 1 0.8125
vt 1 0.6875
vt 0 0.6875
vn 0.7071067811865475 0.696364240320019 0.12278780396897285
vn -0.7071067811865475 -0.696364240320019 -0.12278780396897285
usemtl microphone_stand_stage
f 107/124/31 108/123/31 106/122/31 105/121/31
f 111/128/32 112/127/32 110/126/32 109/125/32
o cube
v 0.0441941738241598 1.5504486761865364 0.5000781142541646
v 0.0441941738241598 1.724096853853467 -0.4847296387580431
v -0.044194173824159244 1.4634031461465336 0.484729638758043
v -0.044194173824159244 1.6370513238134636 -0.5000781142541648
v 0.0441941738241598 1.724096853853467 -0.4847296387580431
v 0.0441941738241598 1.5504486761865364 0.5000781142541646
v -0.044194173824159244 1.6370513238134636 -0.5000781142541648
v -0.044194173824159244 1.4634031461465336 0.484729638758043
vt 1 0.8125
vt 0 0.8125
vt 0 0.6875
vt 1 0.6875
vt 0 0.8125
vt 1 0.8125
vt 1 0.6875
vt 0 0.6875
vn 0.7071067811865475 -0.696364240320019 -0.12278780396897285
vn -0.7071067811865475 0.696364240320019 0.12278780396897285
usemtl microphone_stand_stage
f 115/132/33 116/131/33 114/130/33 113/129/33
f 119/136/34 120/135/34 118/134/34 117/133/34
o cable
v 0 1.7068898535378025 -0.011782472849310499
v 0 1.7720079201629013 -0.3810853802288889
v 0 1.6145641266929074 -0.02806198950558536
v 0 1.6796821933180062 -0.39736489688516374
v 0 1.7720079201629013 -0.3810853802288889
v 0 1.7068898535378025 -0.011782472849310499
v 0 1.6796821933180062 -0.39736489688516374
v 0 1.6145641266929074 -0.02806198950558536
vt 1 0.6875
vt 0.625 0.6875
vt 0.625 0.59375
vt 1 0.59375
vt 0.625 0.6875
vt 1 0.6875
vt 1 0.59375
vt 0.625 0.59375
vn 1 0 0
vn -1 0 0
usemtl microphone_stand_stage
f 123/140/35 124/139/35 122/138/35 121/137/35
f 127/144/36 128/143/36 126/142/36 125/141/36
o cable
v -0.01771075980288861 1.526170948651763 -0.5125739777726279
v -0.01841568374392455 1.5129944380347422 -0.4842465149459487
v 0.0007049239410359398 1.7236339462166583 -0.4202658541597513
v 0 1.7104574355996376 -0.3919383913330722
v -0.08067785237465863 1.518358916233332 -0.48330061270211505
v -0.07997292843362269 1.5315354268503527 -0.5116280755287942
v -0.06226216863073408 1.7158219137982273 -0.3909924890892385
v -0.06155724468969814 1.728998424415248 -0.41931995191591764
vt 0.53125 0.96875
vt 0.53125 1
vt 0.75 1
vt 0.75 0.96875
vt 0.6875 1
vt 0.75 1
vt 0.75 0.96875
vt 0.6875 0.96875
vn -0.9961946980917457 0.0858316511774313 0.015134435901338613
vn 0.08418598282936919 0.902687988868091 0.42197999365886346
usemtl microphone_stand_stage
f 135/148/37 136/147/37 134/146/37 133/145/37
f 135/152/38 132/151/38 131/150/38 136/149/38
o cube
v -0.03314563036811924 1.5124354571710779 0.6520357662253067
v -0.03314563036811924 1.5395679849315353 0.4981595548171496
v 0.03314563036811946 1.447151309641076 0.6405244096032154
v 0.03314563036811946 1.4742838374015337 0.48664819819505833
v -0.03314563036811924 1.5395679849315353 0.4981595548171496
v -0.03314563036811924 1.5124354571710779 0.6520357662253067
v 0.03314563036811946 1.4742838374015337 0.48664819819505833
v 0.03314563036811946 1.447151309641076 0.6405244096032154
vt 0.375 0.6875
vt 0.25 0.6875
vt 0.25 0.59375
vt 0.375 0.59375
vt 0.25 0.6875
vt 0.375 0.6875
vt 0.375 0.59375
vt 0.25 0.59375
vn 0.7071067811865475 0.696364240320019 0.12278780396897285
vn -0.7071067811865475 -0.696364240320019 -0.12278780396897285
usemtl microphone_stand_stage
f 139/156/39 140/155/39 138/154/39 137/153/39
f 143/160/40 144/159/40 142/158/40 141/157/40
o cube
v 0.033145630368120016 1.5124354571710783 0.6520357662253069
v 0.033145630368120016 1.5395679849315362 0.4981595548171498
v -0.03314563036811946 1.447151309641076 0.6405244096032157
v -0.03314563036811946 1.4742838374015337 0.48664819819505845
v 0.033145630368120016 1.5395679849315362 0.4981595548171498
v 0.033145630368120016 1.5124354571710783 0.6520357662253069
v -0.03314563036811946 1.4742838374015337 0.48664819819505845
v -0.03314563036811946 1.447151309641076 0.6405244096032157
vt 0.375 0.6875
vt 0.25 0.6875
vt 0.25 0.59375
vt 0.375 0.59375
vt 0.25 0.6875
vt 0.375 0.6875
vt 0.375 0.59375
vt 0.25 0.59375
vn 0.7071067811865475 -0.696364240320019 -0.12278780396897285
vn -0.7071067811865475 0.696364240320019 0.12278780396897285
usemtl microphone_stand_stage
f 147/164/41 148/163/41 146/162/41 145/161/41
f 151/168/42 152/167/42 150/166/42 149/165/42
o cube
v 0.078125 1.4955260810985944 -0.6131737396067775
v 0.078125 1.4823192604191977 -0.5848516212618822
v 0.078125 1.608814554478176 -0.5603464568891898
v 0.078125 1.5956077337987793 -0.5320243385442945
v -0.078125 1.4823192604191977 -0.5848516212618822
v -0.078125 1.4955260810985944 -0.6131737396067775
v -0.078125 1.5956077337987793 -0.5320243385442945
v -0.078125 1.608814554478176 -0.5603464568891898
vt 0.5 0.6875
vt 0.5 0.65625
vt 0.375 0.65625
vt 0.375 0.6875
vt 0.5 0.65625
vt 0.5 0.6875
vt 0.375 0.6875
vt 0.375 0.65625
vt 0.46875 0.6875
vt 0.625 0.6875
vt 0.625 0.65625
vt 0.46875 0.65625
vn 1 0 0
vn -1 0 0
vn 0 0.9063077870366499 0.4226182617406995
usemtl microphone_stand_stage
f 155/172/43 156/171/43 154/170/43 153/169/43
f 159/176/44 160/175/44 158/174/44 157/173/44
f 159/180/45 156/179/45 155/178/45 160/177/45
o cube
v 0 1.608814554478176 -0.56034645688919
v 0 1.5956077337987793 -0.5320243385442945
v 0 1.6937809095128622 -0.5207259948509996
v 0 1.680574088833465 -0.492403876506104
v 0 1.5956077337987793 -0.5320243385442945
v 0 1.608814554478176 -0.56034645688919
v 0 1.680574088833465 -0.492403876506104
v 0 1.6937809095128622 -0.5207259948509996
vt 0.84375 1
vt 0.84375 0.96875
vt 0.75 0.96875
vt 0.75 1
vt 0.84375 0.96875
vt 0.84375 1
vt 0.75 1
vt 0.75 0.96875
vn 1 0 0
vn -1 0 0
usemtl microphone_stand_stage
f 163/184/46 164/183/46 162/182/46 161/181/46
f 167/188/47 168/187/47 166/186/47 165/185/47
o blur_bm7b
v 0.0625 1.565583729931344 -0.4361592700946302
v 0.0625 1.565583729931344 -0.8424092700946313
v 0.0625 1.4405837299313442 -0.4361592700946302
v 0.0625 1.4405837299313442 -0.8424092700946313
v -0.0625 1.565583729931344 -0.8424092700946313
v -0.0625 1.565583729931344 -0.4361592700946302
v -0.0625 1.4405837299313442 -0.8424092700946313
v -0.0625 1.4405837299313442 -0.4361592700946302
vt 0 0.875
vt 0.125 0.875
vt 0.125 0.75
vt 0 0.75
vt 0.53125 1
vt 0.125 1
vt 0.125 0.875
vt 0.53125 0.875
vt 0.53125 0.875
vt 0.65625 0.875
vt 0.65625 0.75
vt 0.53125 0.75
vt 0.125 0.75
vt 0.53125 0.75
vt 0.53125 0.625
vt 0.125 0.625
vt 0.125 0.875
vt 0.125 0.75
vt 0.53125 0.75
vt 0.53125 0.875
vt 0.53125 0.625
vt 0.53125 0.5
vt 0.125 0.5
vt 0.125 0.625
vn 0 -5.551115123125783e-17 -1
vn 1 0 0
vn 0 5.551115123125783e-17 1
vn -1 0 0
vn 0 1 -5.551115123125783e-17
vn 0 -1 5.551115123125783e-17
usemtl microphone
f 172/192/48 175/191/48 173/190/48 170/189/48
f 171/196/49 172/195/49 170/194/49 169/193/49
f 176/200/50 171/199/50 169/198/50 174/197/50
f 175/204/51 176/203/51 174/202/51 173/201/51
f 174/208/52 169/207/52 170/206/52 173/205/52
f 175/212/53 172/211/53 171/210/53 176/209/53