# Made in Blockbench 4.6.5
mtllib microphone_stand_tripod_boom_0.mtl

o leg
v -6.106226635438361e-16 0.02636366937931145 0.5910770991920735
v 1.1102230246251565e-15 0.21875 0.0625
v -6.106226635438361e-16 -0.003001725020248258 0.5803889697131464
v 1.2212453270876722e-15 0.18938460560044035 0.051811870521072834
v 1.1102230246251565e-15 0.21875 0.0625
v -6.106226635438361e-16 0.02636366937931145 0.5910770991920735
v 1.2212453270876722e-15 0.18938460560044035 0.051811870521072834
v -6.106226635438361e-16 -0.003001725020248258 0.5803889697131464
vt 0.5625 1
vt 0 1
vt 0 0.96875
vt 0.5625 0.96875
vt 0 0.96875
vt 0.5625 0.96875
vt 0.5625 1
vt 0 1
vn 1 0 3.4129929940078955e-15
vn -1 0 -3.4129929940078955e-15
usemtl microphone_stand
f 3/4/1 4/3/1 2/2/1 1/1/1
f 7/8/2 8/7/2 6/6/2 5/5/2
o support
v 3.3306690738754696e-16 0.125 0.21875
v 9.992007221626409e-16 0.08701446113535893 0.003323304028579499
v 3.3306690738754696e-16 0.09422475771836847 0.22417650555209157
v 9.992007221626409e-16 0.05623921885372751 0.008749809580671064
v 9.992007221626409e-16 0.08701446113535893 0.003323304028579499
v 3.3306690738754696e-16 0.125 0.21875
v 9.992007221626409e-16 0.05623921885372751 0.008749809580671064
v 3.3306690738754696e-16 0.09422475771836847 0.22417650555209157
vt 0.21875 0.96875
vt 0 0.96875
vt 0 0.9375
vt 0.21875 0.9375
vt 0 0.9375
vt 0.21875 0.9375
vt 0.21875 0.96875
vt 0 0.96875
vn 1 0 3.0414759762028884e-15
vn -1 0 -3.0414759762028884e-15
usemtl microphone_stand
f 11/12/3 12/11/3 10/10/3 9/9/3
f 15/16/4 16/15/4 14/14/4 13/13/4
o leg
v 0.5118877834955511 0.02636366937931145 -0.2955385495960357
v 0.054126587736527454 0.21875 -0.031250000000000666
v 0.5026315918478628 -0.003001725020248258 -0.2901944848565722
v 0.04487039608883914 0.18938460560044035 -0.02590593526053714
v 0.054126587736527454 0.21875 -0.031250000000000666
v 0.5118877834955511 0.02636366937931145 -0.2955385495960357
v 0.04487039608883914 0.18938460560044035 -0.02590593526053714
v 0.5026315918478628 -0.003001725020248258 -0.2901944848565722
vt 0.5625 1
vt 0 1
vt 0 0.96875
vt 0.5625 0.96875
vt 0 0.96875
vt 0.5625 0.96875
vt 0.5625 1
vt 0 1
vn -0.49999999999999684 2.7755575615628914e-17 -0.8660254037844405
vn 0.49999999999999684 -2.7755575615628914e-17 0.8660254037844405
usemtl microphone_stand
f 19/20/5 20/19/5 18/18/5 17/17/5
f 23/24/6 24/23/6 22/22/6 21/21/6
o support
v 0.18944305707784637 0.125 -0.10937499999999994
v 0.0028780657132490006 0.08701446113535893 -0.0016616520142903046
v 0.19414254873973502 0.09422475771836847 -0.11208825277604573
v 0.007577557375137656 0.05623921885372751 -0.004374904790336087
v 0.0028780657132490006 0.08701446113535893 -0.0016616520142903046
v 0.18944305707784637 0.125 -0.10937499999999994
v 0.007577557375137656 0.05623921885372751 -0.004374904790336087
v 0.19414254873973502 0.09422475771836847 -0.11208825277604573
vt 0.21875 0.96875
vt 0 0.96875
vt 0 0.9375
vt 0.21875 0.9375
vt 0 0.9375
vt 0.21875 0.9375
vt 0.21875 0.96875
vt 0 0.96875
vn -0.4999999999999972 -1.387778780781446e-17 -0.8660254037844405
vn 0.4999999999999972 1.387778780781446e-17 0.8660254037844405
usemtl microphone_stand
f 27/28/7 28/27/7 26/26/7 25/25/7
f 31/32/8 32/31/8 30/30/8 29/29/8
o leg
v -0.5118877834955494 0.02636366937931145 -0.29553854959603754
v -0.054126587736527454 0.21875 -0.031249999999999334
v -0.5026315918478612 -0.003001725020248258 -0.29019448485657395
v -0.04487039608883919 0.18938460560044035 -0.025905935260535695
v -0.054126587736527454 0.21875 -0.031249999999999334
v -0.5118877834955494 0.02636366937931145 -0.29553854959603754
v -0.04487039608883919 0.18938460560044035 -0.025905935260535695
v -0.5026315918478612 -0.003001725020248258 -0.29019448485657395
vt 0.5625 1
vt 0 1
vt 0 0.96875
vt 0.5625 0.96875
vt 0 0.96875
vt 0.5625 0.96875
vt 0.5625 1
vt 0 1
vn -0.5000000000000027 2.7755575615628907e-17 0.8660254037844372
vn 0.5000000000000027 -2.7755575615628907e-17 -0.8660254037844372
usemtl microphone_stand
f 35/36/9 36/35/9 34/34/9 33/33/9
f 39/40/10 40/39/10 38/38/10 37/37/10
o support
v -0.1894430570778456 0.125 -0.10937499999999994
v -0.0028780657132488896 0.08701446113535893 -0.0016616520142891389
v -0.1941425487397342 0.09422475771836847 -0.11208825277604573
v -0.007577557375137545 0.05623921885372751 -0.004374904790334977
v -0.0028780657132488896 0.08701446113535893 -0.0016616520142891389
v -0.1894430570778456 0.125 -0.10937499999999994
v -0.007577557375137545 0.05623921885372751 -0.004374904790334977
v -0.1941425487397342 0.09422475771836847 -0.11208825277604573
vt 0.21875 0.96875
vt 0 0.96875
vt 0 0.9375
vt 0.21875 0.9375
vt 0 0.9375
vt 0.21875 0.9375
vt 0.21875 0.96875
vt 0 0.96875
vn -0.5000000000000023 0 0.8660254037844374
vn 0.5000000000000023 0 -0.8660254037844374
usemtl microphone_stand
f 43/44/11 44/43/11 42/42/11 41/41/11
f 47/48/12 48/47/12 46/46/12 45/45/12
o fixed_base
v 0.0625 0.21875 0.0625
v 0.0625 0.21875 -0.0625
v 0.0625 0.1875 0.0625
v 0.0625 0.1875 -0.0625
v -0.0625 0.21875 -0.0625
v -0.0625 0.21875 0.0625
v -0.0625 0.1875 -0.0625
v -0.0625 0.1875 0.0625
vt 0.1875 0.96875
vt 0.3125 0.96875
vt 0.3125 0.9375
vt 0.1875 0.9375
vt 0.1875 0.96875
vt 0.3125 0.96875
vt 0.3125 0.9375
vt 0.1875 0.9375
vt 0.3125 0.96875
vt 0.4375 0.96875
vt 0.4375 0.9375
vt 0.3125 0.9375
vt 0.3125 0.96875
vt 0.4375 0.96875
vt 0.4375 0.9375
vt 0.3125 0.9375
vt 0.125 0.6875
vt 0.25 0.6875
vt 0.25 0.5625
vt 0.125 0.5625
vt 0 0.6875
vt 0.125 0.6875
vt 0.125 0.5625
vt 0 0.5625
vn 0 0 -1
vn 1 0 0
vn 0 0 1
vn -1 0 0
vn 0 1 0
vn 0 -1 0
usemtl microphone_stand
f 52/52/13 55/51/13 53/50/13 50/49/13
f 51/56/14 52/55/14 50/54/14 49/53/14
f 56/60/15 51/59/15 49/58/15 54/57/15
f 55/64/16 56/63/16 54/62/16 53/61/16
f 54/68/17 49/67/17 50/66/17 53/65/17
f 55/72/18 52/71/18 51/70/18 56/69/18
o cable
v 0.060261338408112985 0.5641287768735628 0.16556666654240426
v 0 0.4999999999999999 0
v 0.12971689435716616 0.0061862832819297164 0.3563942381680957
v 0.06945555594905328 -0.057942493591633115 0.19082757162569142
v 0 0.4999999999999999 0
v 0.060261338408112985 0.5641287768735628 0.16556666654240426
v 0.06945555594905328 -0.057942493591633115 0.19082757162569142
v 0.12971689435716616 0.0061862832819297164 0.3563942381680957
vt 1 0.59375
vt 0.8125 0.59375
vt 0.8125 0
vt 1 0
vt 0.8125 0.59375
vt 1 0.59375
vt 1 0
vt 0.8125 0
vn 0.9396926207859086 -1.3877787807814457e-17 -0.342020143325668
vn -0.9396926207859086 1.3877787807814457e-17 0.342020143325668
usemtl microphone_stand
f 59/76/19 60/75/19 58/74/19 57/73/19
f 63/80/20 64/79/20 62/78/20 61/77/20
o cube
v -0.044194173824159244 1.0625 0.044194173824159244
v 0.044194173824159244 1.0625 -0.044194173824159244
v -0.044194173824159244 0.06249999999999989 0.044194173824159244
v 0.044194173824159244 0.06249999999999989 -0.044194173824159244
v 0.044194173824159244 1.0625 -0.044194173824159244
v -0.044194173824159244 1.0625 0.044194173824159244
v 0.044194173824159244 0.06249999999999989 -0.044194173824159244
v -0.044194173824159244 0.06249999999999989 0.044194173824159244
vt 1 0.9375
vt 1 0.8125
vt 0 0.8125
vt 0 0.9375
vt 1 0.9375
vt 1 0.8125
vt 0 0.8125
vt 0 0.9375
vn 0.7071067811865475 0 0.7071067811865476
vn -0.7071067811865475 0 -0.7071067811865476
usemtl microphone_stand
f 67/84/21 68/83/21 66/82/21 65/81/21
f 71/88/22 72/87/22 70/86/22 69/85/22
o cube
v -0.04419417382415952 1.59375 -0.04419417382415908
v 0.04419417382415891 1.59375 0.044194173824159355
v -0.04419417382415952 1.0625 -0.04419417382415908
v 0.04419417382415891 1.0625 0.044194173824159355
v 0.04419417382415891 1.59375 0.044194173824159355
v -0.04419417382415952 1.59375 -0.04419417382415908
v 0.04419417382415891 1.0625 0.044194173824159355
v -0.04419417382415952 1.0625 -0.04419417382415908
vt 0.53125 0.9375
vt 0.53125 0.8125
vt 0 0.8125
vt 0 0.9375
vt 0.53125 0.9375
vt 0.53125 0.8125
vt 0 0.8125
vt 0 0.9375
vn -0.7071067811865475 0 0.7071067811865477
vn 0.7071067811865475 0 -0.7071067811865477
usemtl microphone_stand
f 75/92/23 76/91/23 74/90/23 73/89/23
f 79/96/24 80/95/24 78/94/24 77/93/24
o cube
v -0.044194173824159244 1.59375 0.044194173824159244
v 0.044194173824159244 1.59375 -0.044194173824159244
v -0.044194173824159244 1.0625 0.044194173824159244
v 0.044194173824159244 1.0625 -0.044194173824159244
v 0.044194173824159244 1.59375 -0.044194173824159244
v -0.044194173824159244 1.59375 0.044194173824159244
v 0.044194173824159244 1.0625 -0.044194173824159244
v -0.044194173824159244 1.0625 0.044194173824159244
vt 0.53125 0.9375
vt 0.53125 0.8125
vt 0 0.8125
vt 0 0.9375
vt 0.53125 0.9375
vt 0.53125 0.8125
vt 0 0.8125
vt 0 0.9375
vn 0.7071067811865475 0 0.7071067811865476
vn -0.7071067811865475 0 -0.7071067811865476
usemtl microphone_stand
f 83/100/25 84/99/25 82/98/25 81/97/25
f 87/104/26 88/103/26 86/102/26 85/101/26
o cube
v -0.04419417382415908 1.550448676186536 0.5000781142541648
v -0.04419417382415908 1.7240968538534664 -0.48472963875804326
v 0.044194173824159244 1.4634031461465336 0.4847296387580432
v 0.044194173824159244 1.637051323813464 -0.5000781142541648
v -0.04419417382415908 1.7240968538534664 -0.48472963875804326
v -0.04419417382415908 1.550448676186536 0.5000781142541648
v 0.044194173824159244 1.637051323813464 -0.5000781142541648
v 0.044194173824159244 1.4634031461465336 0.4847296387580432
vt 1 0.8125
vt 0 0.8125
vt 0 0.6875
vt 1 0.6875
vt 0 0.8125
vt 1 0.8125
vt 1 0.6875
vt 0 0.6875
vn 0.7071067811865475 0.696364240320019 0.12278780396897285
vn -0.7071067811865475 -0.696364240320019 -0.12278780396897285
usemtl microphone_stand
f 91/108/27 92/107/27 90/106/27 89/105/27
f 95/112/28 96/111/28 94/110/28 93/109/28
o cube
v 0.0441941738241598 1.5504486761865364 0.5000781142541646
v 0.0441941738241598 1.724096853853467 -0.4847296387580431
v -0.044194173824159244 1.4634031461465336 0.484729638758043
v -0.044194173824159244 1.6370513238134636 -0.5000781142541648
v 0.0441941738241598 1.724096853853467 -0.4847296387580431
v 0.0441941738241598 1.5504486761865364 0.5000781142541646
v -0.044194173824159244 1.6370513238134636 -0.5000781142541648
v -0.044194173824159244 1.4634031461465336 0.484729638758043
vt 1 0.8125
vt 0 0.8125
vt 0 0.6875
vt 1 0.6875
vt 0 0.8125
vt 1 0.8125
vt 1 0.6875
vt 0 0.6875
vn 0.7071067811865475 -0.696364240320019 -0.12278780396897285
vn -0.7071067811865475 0.696364240320019 0.12278780396897285
usemtl microphone_stand
f 99/116/29 100/115/29 98/114/29 97/113/29
f 103/120/30 104/119/30 102/118/30 101/117/30
o cable
v 0 1.7068898535378025 -0.011782472849310499
v 0 1.7720079201629013 -0.3810853802288889
v 0 1.6145641266929074 -0.02806198950558536
v 0 1.6796821933180062 -0.39736489688516374
v 0 1.7720079201629013 -0.3810853802288889
v 0 1.7068898535378025 -0.011782472849310499
v 0 1.6796821933180062 -0.39736489688516374
v 0 1.6145641266929074 -0.02806198950558536
vt 1 0.6875
vt 0.625 0.6875
vt 0.625 0.59375
vt 1 0.59375
vt 0.625 0.6875
vt 1 0.6875
vt 1 0.59375
vt 0.625 0.59375
vn 1 0 0
vn -1 0 0
usemtl microphone_stand
f 107/124/31 108/123/31 106/122/31 105/121/31
f 111/128/32 112/127/32 110/126/32 109/125/32
o cable
v -0.01771075980288861 1.526170948651763 -0.5125739777726279
v -0.01841568374392455 1.5129944380347422 -0.4842465149459487
v 0.0007049239410359398 1.7236339462166583 -0.4202658541597513
v 0 1.7104574355996376 -0.3919383913330722
v -0.08067785237465863 1.518358916233332 -0.48330061270211505
v -0.07997292843362269 1.5315354268503527 -0.5116280755287942
v -0.06226216863073408 1.7158219137982273 -0.3909924890892385
v -0.06155724468969814 1.728998424415248 -0.41931995191591764
vt 0.53125 0.96875
vt 0.53125 1
vt 0.75 1
vt 0.75 0.96875
vt 0.6875 1
vt 0.75 1
vt 0.75 0.96875
vt 0.6875 0.96875
vn -0.9961946980917457 0.0858316511774313 0.015134435901338613
vn 0.08418598282936919 0.902687988868091 0.42197999365886346
usemtl microphone_stand
f 119/132/33 120/131/33 118/130/33 117/129/33
f 119/136/34 116/135/34 115/134/34 120/133/34
o cube
v -0.03314563036811924 1.5124354571710779 0.6520357662253067
v -0.03314563036811924 1.5395679849315353 0.4981595548171496
v 0.03314563036811946 1.447151309641076 0.6405244096032154
v 0.03314563036811946 1.4742838374015337 0.48664819819505833
v -0.03314563036811924 1.5395679849315353 0.4981595548171496
v -0.03314563036811924 1.5124354571710779 0.6520357662253067
v 0.03314563036811946 1.4742838374015337 0.48664819819505833
v 0.03314563036811946 1.447151309641076 0.6405244096032154
vt 0.375 0.6875
vt 0.25 0.6875
vt 0.25 0.59375
vt 0.375 0.59375
vt 0.25 0.6875
vt 0.375 0.6875
vt 0.375 0.59375
vt 0.25 0.59375
vn 0.7071067811865475 0.696364240320019 0.12278780396897285
vn -0.7071067811865475 -0.696364240320019 -0.12278780396897285
usemtl microphone_stand
f 123/140/35 124/139/35 122/138/35 121/137/35
f 127/144/36 128/143/36 126/142/36 125/141/36
o cube
v 0.033145630368120016 1.5124354571710783 0.6520357662253069
v 0.033145630368120016 1.5395679849315362 0.4981595548171498
v -0.03314563036811946 1.447151309641076 0.6405244096032157
v -0.03314563036811946 1.4742838374015337 0.48664819819505845
v 0.033145630368120016 1.5395679849315362 0.4981595548171498
v 0.033145630368120016 1.5124354571710783 0.6520357662253069
v -0.03314563036811946 1.4742838374015337 0.48664819819505845
v -0.03314563036811946 1.447151309641076 0.6405244096032157
vt 0.375 0.6875
vt 0.25 0.6875
vt 0.25 0.59375
vt 0.375 0.59375
vt 0.25 0.6875
vt 0.375 0.6875
vt 0.375 0.59375
vt 0.25 0.59375
vn 0.7071067811865475 -0.696364240320019 -0.12278780396897285
vn -0.7071067811865475 0.696364240320019 0.12278780396897285
usemtl microphone_stand
f 131/148/37 132/147/37 130/146/37 129/145/37
f 135/152/38 136/151/38 134/150/38 133/149/38
o blur_bm7b
v 0.0625 1.565583729931344 -0.4361592700946302
v 0.0625 1.565583729931344 -0.8424092700946313
v 0.0625 1.4405837299313442 -0.4361592700946302
v 0.0625 1.4405837299313442 -0.8424092700946313
v -0.0625 1.565583729931344 -0.8424092700946313
v -0.0625 1.565583729931344 -0.4361592700946302
v -0.0625 1.4405837299313442 -0.8424092700946313
v -0.0625 1.4405837299313442 -0.4361592700946302
vt 0 0.875
vt 0.125 0.875
vt 0.125 0.75
vt 0 0.75
vt 0.53125 1
vt 0.125 1
vt 0.125 0.875
vt 0.53125 0.875
vt 0.53125 0.875
vt 0.65625 0.875
vt 0.65625 0.75
vt 0.53125 0.75
vt 0.125 0.75
vt 0.53125 0.75
vt 0.53125 0.625
vt 0.125 0.625
vt 0.125 0.875
vt 0.125 0.75
vt 0.53125 0.75
vt 0.53125 0.875
vt 0.53125 0.625
vt 0.53125 0.5
vt 0.125 0.5
vt 0.125 0.625
vn 0 -5.551115123125783e-17 -1
vn 1 0 0
vn 0 5.551115123125783e-17 1
vn -1 0 0
vn 0 1 -5.551115123125783e-17
vn 0 -1 5.551115123125783e-17
usemtl microphone
f 140/156/39 143/155/39 141/154/39 138/153/39
f 139/160/40 140/159/40 138/158/40 137/157/40
f 144/164/41 139/163/41 137/162/41 142/161/41
f 143/168/42 144/167/42 142/166/42 141/165/42
f 142/172/43 137/171/43 138/170/43 141/169/43
f 143/176/44 140/175/44 139/174/44 144/173/44
o cube
v 0 1.680574088833465 -0.492403876506104
v 0 1.6937809095128622 -0.5207259948509996
v 0 1.5956077337987793 -0.5320243385442945
v 0 1.608814554478176 -0.56034645688919
v 0 1.6937809095128622 -0.5207259948509996
v 0 1.680574088833465 -0.492403876506104
v 0 1.608814554478176 -0.56034645688919
v 0 1.5956077337987793 -0.5320243385442945
vt 0.84375 1
vt 0.84375 0.96875
vt 0.75 0.96875
vt 0.75 1
vt 0.84375 0.96875
vt 0.84375 1
vt 0.75 1
vt 0.75 0.96875
vn 1 0 0
vn -1 0 0
usemtl microphone_stand
f 147/180/45 148/179/45 146/178/45 145/177/45
f 151/184/46 152/183/46 150/182/46 149/181/46
o cube
v 0.078125 1.5956077337987793 -0.5320243385442945
v 0.078125 1.608814554478176 -0.5603464568891898
v 0.078125 1.4823192604191977 -0.5848516212618822
v 0.078125 1.4955260810985944 -0.6131737396067775
v -0.078125 1.608814554478176 -0.5603464568891898
v -0.078125 1.5956077337987793 -0.5320243385442945
v -0.078125 1.4955260810985944 -0.6131737396067775
v -0.078125 1.4823192604191977 -0.5848516212618822
vt 0.5 0.6875
vt 0.5 0.65625
vt 0.375 0.65625
vt 0.375 0.6875
vt 0.5 0.65625
vt 0.5 0.6875
vt 0.375 0.6875
vt 0.375 0.65625
vt 0.46875 0.6875
vt 0.625 0.6875
vt 0.625 0.65625
vt 0.46875 0.65625
vt 0.46875 0.6875
vt 0.625 0.6875
vt 0.625 0.65625
vt 0.46875 0.65625
vn 1 0 0
vn -1 0 0
vn 0 0.9063077870366499 0.4226182617406994
vn 0 -0.9063077870366499 -0.4226182617406994
usemtl microphone_stand
f 155/188/47 156/187/47 154/186/47 153/185/47
f 159/192/48 160/191/48 158/190/48 157/189/48
f 158/196/49 153/195/49 154/194/49 157/193/49
f 159/200/50 156/199/50 155/198/50 160/197/50
o cable
v 0.026720323697317805 1.46875 0.07341348599889908
v -0.02672032369731786 1.46875 -0.07341348599889919
v 0.026720323697317805 1 0.07341348599889908
v -0.02672032369731786 1 -0.07341348599889919
v -0.02672032369731786 1.46875 -0.07341348599889919
v 0.026720323697317805 1.46875 0.07341348599889908
v -0.02672032369731786 1 -0.07341348599889919
v 0.026720323697317805 1 0.07341348599889908
vt 0.8125 0.59375
vt 0.65625 0.59375
vt 0.65625 0.125
vt 0.8125 0.125
vt 0.65625 0.59375
vt 0.8125 0.59375
vt 0.8125 0.125
vt 0.65625 0.125
vn 0.9396926207859084 0 -0.34202014332566866
vn -0.9396926207859084 0 0.34202014332566866
usemtl microphone_stand
f 163/204/51 164/203/51 162/202/51 161/201/51
f 167/208/52 168/207/52 166/206/52 165/205/52
o cube
v 0.044194173824159244 1.0625 0.044194173824159244
v -0.04419417382415919 1.0625 -0.04419417382415919
v 0.044194173824159244 0.0625 0.044194173824159244
v -0.04419417382415919 0.0625 -0.04419417382415919
v -0.04419417382415919 1.0625 -0.04419417382415919
v 0.044194173824159244 1.0625 0.044194173824159244
v -0.04419417382415919 0.0625 -0.04419417382415919
v 0.044194173824159244 0.0625 0.044194173824159244
vt 1 0.9375
vt 1 0.8125
vt 0 0.8125
vt 0 0.9375
vt 1 0.9375
vt 1 0.8125
vt 0 0.8125
vt 0 0.9375
vn 0.7071067811865475 0 -0.7071067811865476
vn -0.7071067811865475 0 0.7071067811865476
usemtl microphone_stand
f 171/212/53 172/211/53 170/210/53 169/209/53
f 175/216/54 176/215/54 174/214/54 173/213/54