# Made in Blockbench 4.6.5
mtllib microphone_stand_base.mtl

o cube
v -0.03305259238733821 0.38072403557068213 0.6767832795390287
v -0.032998121822841175 0.4405531673743167 0.5324415512669143
v 0.032551463193965624 0.31884795183587944 0.651160620564424
v 0.03260593375846266 0.378677083639514 0.5068188922923096
v -0.032998121822841175 0.4405531673743167 0.5324415512669143
v -0.03305259238733821 0.38072403557068213 0.6767832795390287
v 0.03260593375846266 0.378677083639514 0.5068188922923096
v 0.032551463193965624 0.31884795183587944 0.651160620564424
vt 0.375 0.6875
vt 0.25 0.6875
vt 0.25 0.59375
vt 0.375 0.59375
vt 0.25 0.6875
vt 0.375 0.6875
vt 0.375 0.59375
vt 0.25 0.59375
vn 0.7143616720856877 0.6463492835715063 0.26817905414394516
vn -0.7143616720856877 -0.6463492835715063 -0.26817905414394516
usemtl m_ee6d52af-ce19-6af4-b4e0-da065d7a5930
f 3/4/1 4/3/1 2/2/1 1/1/1
f 7/8/2 8/7/2 6/6/2 5/5/2
o cube
v -0.04392123697349243 0.4628316743575108 0.5078436487749256
v -0.04357262536071149 0.8457381179007724 -0.4159434121666068
v 0.0435508371349127 0.38033022937777394 0.47368010347545264
v 0.04389944874769358 0.7632366729210354 -0.4501069574660796
v -0.04357262536071149 0.8457381179007724 -0.4159434121666068
v -0.04392123697349243 0.4628316743575108 0.5078436487749256
v 0.04389944874769358 0.7632366729210354 -0.4501069574660796
v 0.0435508371349127 0.38033022937777394 0.47368010347545264
vt 1 0.8125
vt 0 0.8125
vt 0 0.6875
vt 1 0.6875
vt 0 0.8125
vt 1 0.8125
vt 1 0.6875
vt 0 0.6875
vn 0.7143616720856877 0.6463492835715063 0.26817905414394516
vn -0.7143616720856877 -0.6463492835715063 -0.26817905414394516
usemtl m_ee6d52af-ce19-6af4-b4e0-da065d7a5930
f 11/12/3 12/11/3 10/10/3 9/9/3
f 15/16/4 16/15/4 14/14/4 13/13/4
o cube
v 0.04446240458606554 0.4619777820908615 0.5075230670091857
v 0.04481101619884653 0.8448842256341229 -0.41626399393234664
v -0.04483280442464532 0.38118412164442317 0.47400068524119243
v -0.04448419281186439 0.7640905651876846 -0.4497863757003398
v 0.04481101619884653 0.8448842256341229 -0.41626399393234664
v 0.04446240458606554 0.4619777820908615 0.5075230670091857
v -0.04448419281186439 0.7640905651876846 -0.4497863757003398
v -0.04483280442464532 0.38118412164442317 0.47400068524119243
vt 1 0.8125
vt 0 0.8125
vt 0 0.6875
vt 1 0.6875
vt 0 0.8125
vt 1 0.8125
vt 1 0.6875
vt 0 0.6875
vn 0.6997765928672411 -0.660011559837895 -0.27330836239578243
vn -0.6997765928672411 0.660011559837895 0.27330836239578243
usemtl m_ee6d52af-ce19-6af4-b4e0-da065d7a5930
f 19/20/5 20/19/5 18/18/5 17/17/5
f 23/24/6 24/23/6 22/22/6 21/21/6
o cube
v 0.03994317357103305 0.39810896726490497 0.6501886761929003
v 0.039997644135530086 0.45793809906853955 0.5058469479207859
v -0.03819013431333901 0.3274145143742714 0.6208565921459064
v -0.038135663748841975 0.3872436461779061 0.47651486387379194
v 0.039997644135530086 0.45793809906853955 0.5058469479207859
v 0.03994317357103305 0.39810896726490497 0.6501886761929003
v -0.038135663748841975 0.3872436461779061 0.47651486387379194
v -0.03819013431333901 0.3274145143742714 0.6208565921459064
vt 0.375 0.6875
vt 0.25 0.6875
vt 0.25 0.59375
vt 0.375 0.59375
vt 0.25 0.6875
vt 0.375 0.6875
vt 0.375 0.59375
vt 0.25 0.59375
vn 0.6997765928672411 -0.660011559837895 -0.27330836239578243
vn -0.6997765928672411 0.660011559837895 0.27330836239578243
usemtl m_ee6d52af-ce19-6af4-b4e0-da065d7a5930
f 27/28/7 28/27/7 26/26/7 25/25/7
f 31/32/8 32/31/8 30/30/8 29/29/8
o cube
v 0 0.7052800848877545 0.0975635967524009
v 0 0.8487863720246631 -0.2488912279393316
v 0 0.6186663787148214 0.0616870249681738
v 0 0.76217266585173 -0.2847677997235588
v 0 0.8487863720246631 -0.2488912279393316
v 0 0.7052800848877545 0.0975635967524009
v 0 0.76217266585173 -0.2847677997235588
v 0 0.6186663787148214 0.0616870249681738
vt 1 0.6875
vt 0.625 0.6875
vt 0.625 0.59375
vt 1 0.59375
vt 0.625 0.6875
vt 1 0.6875
vt 1 0.59375
vt 0.625 0.59375
vn 1 0 0
vn -1 0 0
usemtl m_ee6d52af-ce19-6af4-b4e0-da065d7a5930
f 35/36/9 36/35/9 34/34/9 33/33/9
f 39/40/10 40/39/10 38/38/10 37/37/10
o cube
v -0.003124999999999989 0.6624183399022159 -0.4571708190404813
v -0.003124999999999989 0.6384794510547478 -0.4370837062377769
v -0.003124999999999989 0.8030281295211463 -0.2895985971082049
v -0.003124999999999989 0.7790892406736782 -0.26951148430550054
v -0.06562499999999999 0.6384794510547478 -0.4370837062377769
v -0.06562499999999999 0.6624183399022159 -0.4571708190404813
v -0.06562499999999999 0.7790892406736782 -0.26951148430550054
v -0.06562499999999999 0.8030281295211463 -0.2895985971082049
vt 0.53125 0.96875
vt 0.53125 1
vt 0.75 1
vt 0.75 0.96875
vt 0.6875 1
vt 0.75 1
vt 0.75 0.96875
vt 0.6875 0.96875
vn -1 0 0
vn 0 0.6427876096865395 0.7660444431189778
usemtl m_ee6d52af-ce19-6af4-b4e0-da065d7a5930
f 47/44/11 48/43/11 46/42/11 45/41/11
f 47/48/12 44/47/12 43/46/12 48/45/12
o cube
v 0.0625 0.7253854377924291 -0.4259084767394592
v 0.0625 0.6758760170340876 -0.8291303508437464
v 0.0625 0.6013171688372638 -0.41067480881381574
v 0.0625 0.5518077480789225 -0.8138966829181029
v -0.0625 0.6758760170340876 -0.8291303508437464
v -0.0625 0.7253854377924291 -0.4259084767394592
v -0.0625 0.5518077480789225 -0.8138966829181029
v -0.0625 0.6013171688372638 -0.41067480881381574
vt 0.125 0.4375
vt 0.125 0.3125
vt 0 0.3125
vt 0 0.4375
vt 0.53125 0.4375
vt 0.125 0.4375
vt 0.125 0.5625
vt 0.53125 0.5625
vt 0.53125 0.3125
vt 0.53125 0.4375
vt 0.65625 0.4375
vt 0.65625 0.3125
vt 0.125 0.3125
vt 0.53125 0.3125
vt 0.53125 0.1875
vt 0.125 0.1875
vt 0.125 0.3125
vt 0.125 0.4375
vt 0.53125 0.4375
vt 0.53125 0.3125
vt 0.53125 0.1875
vt 0.53125 0.0625
vt 0.125 0.0625
vt 0.125 0.1875
vn 0 -0.1218693434051479 -0.9925461516413221
vn 1 0 0
vn 0 0.1218693434051479 0.9925461516413221
vn -1 0 0
vn 0 0.9925461516413221 -0.1218693434051479
vn 0 -0.9925461516413221 0.1218693434051479
usemtl m_ee6d52af-ce19-6af4-b4e0-da065d7a5930
f 52/52/13 55/51/13 53/50/13 50/49/13
f 51/56/14 52/55/14 50/54/14 49/53/14
f 56/60/15 51/59/15 49/58/15 54/57/15
f 55/64/16 56/63/16 54/62/16 53/61/16
f 54/68/17 49/67/17 50/66/17 53/65/17
f 55/72/18 52/71/18 51/70/18 56/69/18
o cube
v 0.078125 0.6438191660037624 -0.5922862146639917
v 0.078125 0.6243655836088366 -0.5678297097623536
v 0.078125 0.7416451856103141 -0.5144718850842892
v 0.078125 0.7221916032153883 -0.4900153801826511
v -0.078125 0.6243655836088366 -0.5678297097623536
v -0.078125 0.6438191660037624 -0.5922862146639917
v -0.078125 0.7221916032153883 -0.4900153801826511
v -0.078125 0.7416451856103141 -0.5144718850842892
vt 0.5 0.6875
vt 0.5 0.65625
vt 0.375 0.65625
vt 0.375 0.6875
vt 0.5 0.65625
vt 0.5 0.6875
vt 0.375 0.6875
vt 0.375 0.65625
vt 0.46875 0.6875
vt 0.625 0.6875
vt 0.625 0.65625
vt 0.46875 0.65625
vn 1 0 0
vn -1 0 0
vn 0 0.7826081568524139 0.6225146366376194
usemtl m_ee6d52af-ce19-6af4-b4e0-da065d7a5930
f 59/76/19 60/75/19 58/74/19 57/73/19
f 63/80/20 64/79/20 62/78/20 61/77/20
f 63/84/21 60/83/21 59/82/21 64/81/21
o cube
v 0 0.7416451856103141 -0.5144718850842892
v 0 0.7221916032153883 -0.4900153801826511
v 0 0.8150147003152279 -0.45611113789951235
v 0 0.7955611179203022 -0.4316546329978743
v 0 0.7221916032153883 -0.4900153801826511
v 0 0.7416451856103141 -0.5144718850842892
v 0 0.7955611179203022 -0.4316546329978743
v 0 0.8150147003152279 -0.45611113789951235
vt 0.84375 1
vt 0.84375 0.96875
vt 0.75 0.96875
vt 0.75 1
vt 0.84375 0.96875
vt 0.84375 1
vt 0.75 1
vt 0.75 0.96875
vn 1 0 0
vn -1 0 0
usemtl m_ee6d52af-ce19-6af4-b4e0-da065d7a5930
f 67/88/22 68/87/22 66/86/22 65/85/22
f 71/92/23 72/91/23 70/90/23 69/89/23
o cube
v 1.1102230246251565e-16 -0.7938227350793676 0.04005352387848682
v 1.887379141862766e-15 -0.9862090657000564 0.5686306230705602
v 1.1102230246251565e-16 -0.8231881294789273 0.029365394399559652
v 1.887379141862766e-15 -1.015574460099616 0.5579424935916331
v 1.887379141862766e-15 -0.9862090657000564 0.5686306230705602
v 1.1102230246251565e-16 -0.7938227350793676 0.04005352387848682
v 1.887379141862766e-15 -1.015574460099616 0.5579424935916331
v 1.1102230246251565e-16 -0.8231881294789273 0.029365394399559652
vt 0 1
vt 0.5625 1
vt 0.5625 0.96875
vt 0 0.96875
vt 0.5625 0.96875
vt 0 0.96875
vt 0 1
vt 0.5625 1
vn -1 1.2246467991473537e-16 3.412992994007896e-15
vn 1 -1.2246467991473537e-16 -3.412992994007896e-15
usemtl m_ee6d52af-ce19-6af4-b4e0-da065d7a5930
f 75/96/24 76/95/24 74/94/24 73/93/24
f 79/100/25 80/99/25 78/98/25 77/97/25
o cube
v -0.03468736918985621 -0.7938227350793676 -0.0200267619392433
v -0.4924485649488794 -0.9862090657000564 -0.2843153115352791
v -0.02543117754216795 -0.8231881294789273 -0.01468269719977977
v -0.48319237330119114 -1.015574460099616 -0.27897124679581553
v -0.4924485649488794 -0.9862090657000564 -0.2843153115352791
v -0.03468736918985621 -0.7938227350793676 -0.0200267619392433
v -0.48319237330119114 -1.015574460099616 -0.27897124679581553
v -0.02543117754216795 -0.8231881294789273 -0.01468269719977977
vt 0 1
vt 0.5625 1
vt 0.5625 0.96875
vt 0 0.96875
vt 0.5625 0.96875
vt 0 0.96875
vt 0 1
vt 0.5625 1
vn 0.4999999999999983 -8.326672684688677e-17 -0.8660254037844398
vn -0.4999999999999983 8.326672684688677e-17 0.8660254037844398
usemtl m_ee6d52af-ce19-6af4-b4e0-da065d7a5930
f 83/104/26 84/103/26 82/102/26 81/101/26
f 87/108/27 88/107/27 86/106/27 85/105/27
o cube
v 0.034687369189856154 -0.7938227350793676 -0.02002676193924341
v 0.49244856494887856 -0.9862090657000572 -0.28431531153528
v 0.02543117754216795 -0.8231881294789273 -0.014682697199779826
v 0.48319237330119036 -1.0155744600996168 -0.2789712467958164
v 0.49244856494887856 -0.9862090657000572 -0.28431531153528
v 0.034687369189856154 -0.7938227350793676 -0.02002676193924341
v 0.48319237330119036 -1.0155744600996168 -0.2789712467958164
v 0.02543117754216795 -0.8231881294789273 -0.014682697199779826
vt 0 1
vt 0.5625 1
vt 0.5625 0.96875
vt 0 0.96875
vt 0.5625 0.96875
vt 0 0.96875
vt 0 1
vt 0.5625 1
vn 0.5 -8.326672684688674e-17 0.8660254037844386
vn -0.5 8.326672684688674e-17 -0.8660254037844386
usemtl m_ee6d52af-ce19-6af4-b4e0-da065d7a5930
f 91/112/28 92/111/28 90/110/28 89/109/28
f 95/116/29 96/115/29 94/114/29 93/113/29
o cube
v -0.025857051310614332 -0.9049166372204003 -0.014928575534633115
v -0.18808226496603087 -0.8967380020893998 -0.10858934630793204
v -0.027037535609236052 -0.9361368941448334 -0.015610128462216488
v -0.18926274926465259 -0.9279582590138329 -0.10927089923551536
v -0.18808226496603087 -0.8967380020893998 -0.10858934630793204
v -0.025857051310614332 -0.9049166372204003 -0.014928575534633115
v -0.18926274926465259 -0.9279582590138329 -0.10927089923551536
v -0.027037535609236052 -0.9361368941448334 -0.015610128462216488
vt 0 0.96875
vt 0.1875 0.96875
vt 0.1875 0.9375
vt 0 0.9375
vt 0.1875 0.9375
vt 0 0.9375
vt 0 0.96875
vt 0.1875 0.96875
vn 0.49999999999999867 -3.469446951953614e-18 -0.8660254037844396
vn -0.49999999999999867 3.469446951953614e-18 0.8660254037844396
usemtl m_ee6d52af-ce19-6af4-b4e0-da065d7a5930
f 99/120/30 100/119/30 98/118/30 97/117/30
f 103/124/31 104/123/31 102/122/31 101/121/31
o cube
v 0.025857051310614332 -0.9049166372204003 -0.014928575534633115
v 0.18808226496603098 -0.8967380020893998 -0.10858934630793188
v 0.027037535609236052 -0.9361368941448334 -0.015610128462216488
v 0.18926274926465259 -0.9279582590138329 -0.10927089923551525
v 0.18808226496603098 -0.8967380020893998 -0.10858934630793188
v 0.025857051310614332 -0.9049166372204003 -0.014928575534633115
v 0.18926274926465259 -0.9279582590138329 -0.10927089923551525
v 0.027037535609236052 -0.9361368941448334 -0.015610128462216488
vt 0 0.96875
vt 0.1875 0.96875
vt 0.1875 0.9375
vt 0 0.9375
vt 0.1875 0.9375
vt 0 0.9375
vt 0 0.96875
vt 0.1875 0.96875
vn 0.499999999999998 3.469446951953614e-18 0.8660254037844399
vn -0.499999999999998 -3.469446951953614e-18 -0.8660254037844399
usemtl m_ee6d52af-ce19-6af4-b4e0-da065d7a5930
f 107/128/32 108/127/32 106/126/32 105/125/32
f 111/132/33 112/131/33 110/130/33 109/129/33
o cube
v 1.1102230246251565e-16 -0.9049166372204003 0.02985715106926634
v 6.661338147750939e-16 -0.8967380020893998 0.21717869261586464
v 1.1102230246251565e-16 -0.9361368941448334 0.031220256924433087
v 6.661338147750939e-16 -0.9279582590138329 0.2185417984710314
v 6.661338147750939e-16 -0.8967380020893998 0.21717869261586464
v 1.1102230246251565e-16 -0.9049166372204003 0.02985715106926634
v 6.661338147750939e-16 -0.9279582590138329 0.2185417984710314
v 1.1102230246251565e-16 -0.9361368941448334 0.031220256924433087
vt 0 0.96875
vt 0.1875 0.96875
vt 0.1875 0.9375
vt 0 0.9375
vt 0.1875 0.9375
vt 0 0.9375
vt 0 0.96875
vt 0.1875 0.96875
vn -1 1.2246467991473532e-16 3.041475976202887e-15
vn 1 -1.2246467991473532e-16 -3.041475976202887e-15
usemtl m_ee6d52af-ce19-6af4-b4e0-da065d7a5930
f 115/136/34 116/135/34 114/134/34 113/133/34
f 119/140/35 120/139/35 118/138/35 117/137/35
o cube
v -0.044194173824159244 0.06249999999999989 0.044194173824159244
v 0.044194173824159244 0.06249999999999989 -0.044194173824159244
v -0.044194173824159244 -0.9375000000000001 0.044194173824159244
v 0.044194173824159244 -0.9375000000000001 -0.044194173824159244
v 0.044194173824159244 0.06249999999999989 -0.044194173824159244
v -0.044194173824159244 0.06249999999999989 0.044194173824159244
v 0.044194173824159244 -0.9375000000000001 -0.044194173824159244
v -0.044194173824159244 -0.9375000000000001 0.044194173824159244
vt 1 0.9375
vt 1 0.8125
vt 0 0.8125
vt 0 0.9375
vt 1 0.9375
vt 1 0.8125
vt 0 0.8125
vt 0 0.9375
vn 0.7071067811865475 0 0.7071067811865476
vn -0.7071067811865475 0 -0.7071067811865476
usemtl m_ee6d52af-ce19-6af4-b4e0-da065d7a5930
f 123/144/36 124/143/36 122/142/36 121/141/36
f 127/148/37 128/147/37 126/146/37 125/145/37
o cube
v -0.044194173824159244 0.06249999999999989 -0.044194173824159244
v 0.044194173824159244 0.06249999999999989 0.044194173824159244
v -0.044194173824159244 -0.9375000000000001 -0.044194173824159244
v 0.044194173824159244 -0.9375000000000001 0.044194173824159244
v 0.044194173824159244 0.06249999999999989 0.044194173824159244
v -0.044194173824159244 0.06249999999999989 -0.044194173824159244
v 0.044194173824159244 -0.9375000000000001 0.044194173824159244
v -0.044194173824159244 -0.9375000000000001 -0.044194173824159244
vt 1 0.9375
vt 1 0.8125
vt 0 0.8125
vt 0 0.9375
vt 1 0.9375
vt 1 0.8125
vt 0 0.8125
vt 0 0.9375
vn -0.7071067811865475 0 0.7071067811865477
vn 0.7071067811865475 0 -0.7071067811865477
usemtl m_ee6d52af-ce19-6af4-b4e0-da065d7a5930
f 131/152/38 132/151/38 130/150/38 129/149/38
f 135/156/39 136/155/39 134/154/39 133/153/39
o cube
v 0.0625 -0.78125 0.0625
v 0.0625 -0.78125 -0.0625
v 0.0625 -0.8125 0.0625
v 0.0625 -0.8125 -0.0625
v -0.0625 -0.78125 -0.0625
v -0.0625 -0.78125 0.0625
v -0.0625 -0.8125 -0.0625
v -0.0625 -0.8125 0.0625
vt 0.1875 0.96875
vt 0.3125 0.96875
vt 0.3125 0.9375
vt 0.1875 0.9375
vt 0.1875 0.96875
vt 0.3125 0.96875
vt 0.3125 0.9375
vt 0.1875 0.9375
vt 0.3125 0.96875
vt 0.4375 0.96875
vt 0.4375 0.9375
vt 0.3125 0.9375
vt 0.3125 0.96875
vt 0.4375 0.96875
vt 0.4375 0.9375
vt 0.3125 0.9375
vt 0.125 0.6875
vt 0.25 0.6875
vt 0.25 0.5625
vt 0.125 0.5625
vt 0 0.6875
vt 0.125 0.6875
vt 0.125 0.5625
vt 0 0.5625
vn 0 0 -1
vn 1 0 0
vn 0 0 1
vn -1 0 0
vn 0 1 0
vn 0 -1 0
usemtl m_ee6d52af-ce19-6af4-b4e0-da065d7a5930
f 140/160/40 143/159/40 141/158/40 138/157/40
f 139/164/41 140/163/41 138/162/41 137/161/41
f 144/168/42 139/167/42 137/166/42 142/165/42
f 143/172/43 144/171/43 142/170/43 141/169/43
f 142/176/44 137/175/44 138/174/44 141/173/44
f 143/180/45 140/179/45 139/178/45 144/177/45
o cube
v -0.044194173824159244 0.59375 -0.044194173824159244
v 0.044194173824159244 0.59375 0.044194173824159244
v -0.044194173824159244 0.0625 -0.044194173824159244
v 0.044194173824159244 0.0625 0.044194173824159244
v 0.044194173824159244 0.59375 0.044194173824159244
v -0.044194173824159244 0.59375 -0.044194173824159244
v 0.044194173824159244 0.0625 0.044194173824159244
v -0.044194173824159244 0.0625 -0.044194173824159244
vt 0.53125 0.9375
vt 0.53125 0.8125
vt 0 0.8125
vt 0 0.9375
vt 0.53125 0.9375
vt 0.53125 0.8125
vt 0 0.8125
vt 0 0.9375
vn -0.7071067811865475 0 0.7071067811865477
vn 0.7071067811865475 0 -0.7071067811865477
usemtl m_ee6d52af-ce19-6af4-b4e0-da065d7a5930
f 147/184/46 148/183/46 146/182/46 145/181/46
f 151/188/47 152/187/47 150/186/47 149/185/47
o cube
v -0.044194173824159244 0.59375 0.044194173824159244
v 0.044194173824159244 0.59375 -0.044194173824159244
v -0.044194173824159244 0.0625 0.044194173824159244
v 0.044194173824159244 0.0625 -0.044194173824159244
v 0.044194173824159244 0.59375 -0.044194173824159244
v -0.044194173824159244 0.59375 0.044194173824159244
v 0.044194173824159244 0.0625 -0.044194173824159244
v -0.044194173824159244 0.0625 0.044194173824159244
vt 0.53125 0.9375
vt 0.53125 0.8125
vt 0 0.8125
vt 0 0.9375
vt 0.53125 0.9375
vt 0.53125 0.8125
vt 0 0.8125
vt 0 0.9375
vn 0.7071067811865475 0 0.7071067811865476
vn -0.7071067811865475 0 -0.7071067811865476
usemtl m_ee6d52af-ce19-6af4-b4e0-da065d7a5930
f 155/192/48 156/191/48 154/190/48 153/189/48
f 159/196/49 160/195/49 158/194/49 157/193/49
o cube
v 0.02903704318125544 0.526715166221007 0.07977862046822803
v -0.024403604213380337 0.526715166221007 -0.06704835152957017
v 0.02903704318125544 0.05796516622100689 0.07977862046822803
v -0.024403604213380337 0.05796516622100689 -0.06704835152957017
v -0.024403604213380337 0.526715166221007 -0.06704835152957017
v 0.02903704318125544 0.526715166221007 0.07977862046822803
v -0.024403604213380337 0.05796516622100689 -0.06704835152957017
v 0.02903704318125544 0.05796516622100689 0.07977862046822803
vt 0.8125 0.59375
vt 0.65625 0.59375
vt 0.65625 0.125
vt 0.8125 0.125
vt 0.65625 0.59375
vt 0.8125 0.59375
vt 0.8125 0.125
vt 0.65625 0.125
vn 0.9396926207859084 0 -0.34202014332566866
vn -0.9396926207859084 0 0.34202014332566866
usemtl m_ee6d52af-ce19-6af4-b4e0-da065d7a5930
f 163/200/50 164/199/50 162/198/50 161/197/50
f 167/204/51 168/203/51 166/202/51 165/201/51
o cube
v 0.059740957668357186 -0.42878074285856577 0.16413693221040604
v -0.0028677111347872875 -0.46936317047196 -0.007878971588346828
v 0.10369431541300667 -1.0084564970860261 0.2848977901230415
v 0.041085646609862136 -1.0490389246994203 0.11288188632428864
v -0.0028677111347872875 -0.46936317047196 -0.007878971588346828
v 0.059740957668357186 -0.42878074285856577 0.16413693221040604
v 0.041085646609862136 -1.0490389246994203 0.11288188632428864
v 0.10369431541300667 -1.0084564970860261 0.2848977901230415
vt 1 0.59375
vt 0.8125 0.59375
vt 0.8125 0
vt 1 0
vt 0.8125 0.59375
vt 1 0.59375
vt 1 0
vt 0.8125 0
vn 0.9396926207859085 0 -0.3420201433256684
vn -0.9396926207859085 0 0.3420201433256684
usemtl m_ee6d52af-ce19-6af4-b4e0-da065d7a5930
f 171/208/52 172/207/52 170/206/52 169/205/52
f 175/212/53 176/211/53 174/210/53 173/209/53